<svg width="162.378906" height="119.581299" viewBox="0 0 162.379 119.581" fill="none" xmlns="http://www.w3.org/2000/svg" xmlns:xlink="http://www.w3.org/1999/xlink">
	<desc>
			Created with Pixso.
	</desc>
	<defs>
		<filter id="filter_1_1177_dd" x="0.000000" y="41.930176" width="111.937012" height="72.863159" filterUnits="userSpaceOnUse" color-interpolation-filters="sRGB">
			<feFlood flood-opacity="0" result="BackgroundImageFix"/>
			<feColorMatrix in="SourceAlpha" type="matrix" values="0 0 0 0 0 0 0 0 0 0 0 0 0 0 0 0 0 0 127 0" result="hardAlpha"/>
			<feOffset dx="5" dy="5"/>
			<feGaussianBlur stdDeviation="6.66667"/>
			<feComposite in2="hardAlpha" operator="out" k2="-1" k3="1"/>
			<feColorMatrix type="matrix" values="0 0 0 0 0 0 0 0 0 0 0 0 0 0 0 0 0 0 0.2 0"/>
			<feBlend mode="normal" in2="BackgroundImageFix" result="effect_dropShadow_1"/>
			<feBlend mode="normal" in="SourceGraphic" in2="effect_dropShadow_1" result="shape"/>
		</filter>
		<linearGradient x1="100.208237" y1="7.332231" x2="98.074554" y2="124.313942" id="paint_linear_1_1169_0" gradientUnits="userSpaceOnUse">
			<stop stop-color="#FFFFFF" stop-opacity="0.000000"/>
			<stop offset="1.000000" stop-color="#64B5F6" stop-opacity="0.600000"/>
		</linearGradient>
		<linearGradient x1="72.061554" y1="51.891663" x2="148.827240" y2="51.891663" id="paint_linear_1_1170_0" gradientUnits="userSpaceOnUse">
			<stop stop-color="#EF9A9A"/>
			<stop offset="1.000000" stop-color="#D81B60"/>
		</linearGradient>
		<linearGradient x1="73.274734" y1="75.084755" x2="70.959160" y2="100.113091" id="paint_linear_1_1171_0" gradientUnits="userSpaceOnUse">
			<stop stop-color="#7E57C2"/>
			<stop offset="1.000000" stop-color="#4527A0"/>
		</linearGradient>
		<linearGradient x1="6437.337891" y1="2289.641602" x2="6334.918457" y2="2808.308838" id="paint_linear_1_1172_0" gradientUnits="userSpaceOnUse">
			<stop stop-color="#7E57C2"/>
			<stop offset="1.000000" stop-color="#4527A0"/>
		</linearGradient>
		<linearGradient x1="19217.912109" y1="13460.161133" x2="21950.615234" y2="20981.492188" id="paint_linear_1_1173_0" gradientUnits="userSpaceOnUse">
			<stop stop-color="#7E57C2"/>
			<stop offset="1.000000" stop-color="#4527A0"/>
		</linearGradient>
		<linearGradient x1="13189.715820" y1="8851.304688" x2="15286.937500" y2="15206.503906" id="paint_linear_1_1175_0" gradientUnits="userSpaceOnUse">
			<stop stop-color="#7E57C2"/>
			<stop offset="1.000000" stop-color="#4527A0"/>
		</linearGradient>
		<linearGradient x1="113.024933" y1="65.904480" x2="107.527214" y2="108.529091" id="paint_linear_1_1176_0" gradientUnits="userSpaceOnUse">
			<stop offset="0.140000" stop-color="#7E57C2" stop-opacity="0.000000"/>
			<stop offset="0.260000" stop-color="#724DBB" stop-opacity="0.211765"/>
			<stop offset="0.480000" stop-color="#5F3DAF" stop-opacity="0.549020"/>
			<stop offset="0.660000" stop-color="#5131A7" stop-opacity="0.788235"/>
			<stop offset="0.810000" stop-color="#482AA2" stop-opacity="0.941176"/>
			<stop offset="0.910000" stop-color="#4527A0"/>
		</linearGradient>
		<linearGradient x1="26.765625" y1="88.553131" x2="86.937119" y2="88.553131" id="paint_linear_1_1178_0" gradientUnits="userSpaceOnUse">
			<stop stop-color="#D2D4D5"/>
			<stop offset="1.000000" stop-color="#AAACAE"/>
		</linearGradient>
		<linearGradient x1="509.088135" y1="3803.683594" x2="6143.066406" y2="5684.352539" id="paint_linear_1_1179_0" gradientUnits="userSpaceOnUse">
			<stop stop-color="#D2D4D5"/>
			<stop offset="1.000000" stop-color="#AAACAE"/>
		</linearGradient>
		<linearGradient x1="41.997501" y1="85.660851" x2="61.234661" y2="93.500206" id="paint_linear_1_1180_0" gradientUnits="userSpaceOnUse">
			<stop stop-color="#FFF8E1"/>
			<stop offset="1.000000" stop-color="#FFCC80"/>
		</linearGradient>
		<linearGradient x1="7440.692871" y1="2664.963135" x2="8281.285156" y2="2872.781250" id="paint_linear_1_1181_0" gradientUnits="userSpaceOnUse">
			<stop stop-color="#FFF8E1"/>
			<stop offset="1.000000" stop-color="#FFCC80"/>
		</linearGradient>
		<linearGradient x1="7600.734375" y1="2923.597900" x2="8054.563477" y2="3691.851318" id="paint_linear_1_1182_0" gradientUnits="userSpaceOnUse">
			<stop stop-color="#FFF8E1"/>
			<stop offset="1.000000" stop-color="#FFCC80"/>
		</linearGradient>
	</defs>
	<rect id="2 20" rx="-0.500000" width="146.378983" height="117.675224" transform="translate(15.500000 1.405884)" fill="#FFFFFF" fill-opacity="0"/>
	<path id="Vector" d="M162.37 60.24C162.37 71.14 159.2 81.84 153.23 91.15C147.25 100.45 138.7 108.02 128.5 113.01C128.04 113.24 127.58 113.46 127.12 113.67L127.02 113.72L126.69 113.87C126.41 114 126.14 114.12 125.86 114.24C124.12 115 122.33 115.68 120.5 116.28C119.46 116.63 118.41 116.95 117.35 117.24L116.08 117.57C101.94 121.15 86.92 119.91 73.65 114.06C73.1 113.82 72.56 113.57 72.02 113.32L71.06 112.86C61.53 108.11 53.45 101.11 47.59 92.53C46.97 91.64 46.38 90.73 45.82 89.79C45.33 88.97 44.85 88.15 44.38 87.31C39.86 78.94 37.51 69.65 37.52 60.24C37.52 59.13 37.55 58.02 37.62 56.93C38.52 41.5 45.72 27.01 57.68 16.55C69.65 6.09 85.43 0.47 101.68 0.91C117.93 1.34 133.37 7.78 144.7 18.86C156.03 29.94 162.37 44.79 162.36 60.24L162.37 60.24Z" fill="url(#paint_linear_1_1169_0)" fill-opacity="1.000000" fill-rule="nonzero"/>
	<path id="Vector" d="M87.69 58.13C87.69 58.13 73.73 51.84 72.51 43.18C71.3 34.52 72.15 26.25 79.11 23.93C79.11 23.93 83.51 10.59 99.11 15.95C114.71 21.31 112.25 37.4 120.77 39.33C129.3 41.26 145.22 33.14 148.25 43.04C151.29 52.94 141.3 52.34 134.66 60.74C128.03 69.14 138.28 73.55 136.4 79.34C134.52 85.12 127.43 89.1 127.43 89.1L87.69 58.13Z" fill="url(#paint_linear_1_1170_0)" fill-opacity="1.000000" fill-rule="nonzero"/>
	<path id="Vector" d="M68.57 77.12L72.51 87.31L72.94 87.31L79.11 60.74C75.21 63.98 68.57 77.12 68.57 77.12Z" fill="url(#paint_linear_1_1171_0)" fill-opacity="1.000000" fill-rule="nonzero"/>
	<path id="Vector" d="M61.65 91.18L59.15 92.37C56.05 94.14 51.42 93.64 51.42 93.64C53.92 96.31 68.02 99.34 71.98 99.27L72.71 89.78L63.93 89.78L61.65 91.18Z" fill="url(#paint_linear_1_1172_0)" fill-opacity="1.000000" fill-rule="nonzero"/>
	<path id="Vector" d="M127.12 113.66L127.02 113.71L126.69 113.86C126.41 113.98 126.14 114.1 125.86 114.22C124.12 114.98 122.33 115.66 120.5 116.27C119.46 116.61 118.41 116.93 117.35 117.22L116.08 117.56C101.94 121.14 86.92 119.9 73.65 114.05C73.1 113.81 72.56 113.56 72.02 113.3L71.06 112.84C71.19 108.92 71.4 104.22 71.71 99.26C71.9 96.16 72.13 92.96 72.41 89.79C72.49 88.96 72.56 88.14 72.64 87.31C73.78 75.61 75.6 64.75 78.51 61.3L78.56 61.25C78.93 60.77 79.45 60.41 80.05 60.22C84.26 59.27 87.23 58.95 87.7 58.13C88.16 57.31 87.7 55.69 87.7 55.69L88.54 55.58C89.75 55.4 92.12 55.04 94.36 54.49C94.37 54.49 94.38 54.49 94.4 54.49C96.38 54 98.25 53.36 99.16 52.61L101.04 57.35C101.04 57.35 115.16 55.65 120.67 60.76C120.71 60.78 120.74 60.81 120.77 60.84C120.82 60.89 120.88 60.94 120.93 61C121.26 61.33 121.55 61.69 121.8 62.07C123.6 64.82 124.87 75.84 125.75 87.79C125.95 90.54 126.13 93.38 126.29 96.15C126.66 102.57 126.93 108.79 127.12 113.66Z" fill="url(#paint_linear_1_1173_0)" fill-opacity="1.000000" fill-rule="nonzero"/>
	<g opacity="0.150000">
		<path id="Vector" d="M127.02 113.72L126.69 113.87C126.41 114 126.14 114.12 125.86 114.24C124.12 115 122.33 115.68 120.5 116.28C119.46 116.63 118.41 116.95 117.35 117.24C110.84 110.65 108.26 102.1 108.26 102.1L126.28 96.15L127.02 113.72Z" fill="#000000" fill-opacity="1.000000" fill-rule="nonzero"/>
	</g>
	<path id="Vector" d="M120.67 60.74C127.19 66.82 128.61 79.6 127.41 89.11C126.21 98.62 123.97 107.53 119.33 107.25C114.69 106.98 98.63 96.39 92.43 90.61L96.05 84L109.16 89.19L109.16 75.35L120.67 60.74Z" fill="url(#paint_linear_1_1175_0)" fill-opacity="1.000000" fill-rule="nonzero"/>
	<path id="Vector" d="M120.67 60.74C127.19 66.82 128.61 79.6 127.41 89.11C126.21 98.62 123.97 107.53 119.33 107.25C114.69 106.98 98.63 96.39 92.43 90.61L96.05 84L109.16 89.19L109.16 75.35L120.67 60.74Z" fill="url(#paint_linear_1_1176_0)" fill-opacity="1.000000" fill-rule="nonzero"/>
	<g filter="url(#filter_1_1177_dd)">
		<path id="Vector" d="M26.76 87.31L86.93 87.31L86.93 89.79L26.76 89.79L26.76 87.31Z" fill="url(#paint_linear_1_1178_0)" fill-opacity="1.000000" fill-rule="evenodd"/>
		<path id="Vector" d="M60.75 56.93L15 56.93L26.76 87.31L72.51 87.31L60.75 56.93Z" fill="url(#paint_linear_1_1179_0)" fill-opacity="1.000000" fill-rule="nonzero"/>
	</g>
	<path id="Vector" d="M40.5 89.79C40.5 89.79 48.4 93.55 53.41 93.64C58.43 93.73 63.94 89.79 63.94 89.79L40.5 89.79Z" fill="url(#paint_linear_1_1180_0)" fill-opacity="1.000000" fill-rule="nonzero"/>
	<path id="Vector" d="M96.05 84C96.05 84 89.11 80.67 86.12 80.3C83.13 79.94 73.85 87.31 73.85 87.31L86.94 87.31L92.44 90.61L96.05 84Z" fill="url(#paint_linear_1_1181_0)" fill-opacity="1.000000" fill-rule="nonzero"/>
	<path id="Vector" d="M98.58 45.1C98.61 47.61 98.81 50.11 99.16 52.59C96.05 54.25 92.42 55.14 88.53 55.58L88.3 52.59L88.16 50.76L88.16 50.7C87.41 50.69 86.68 50.53 85.99 50.24C81.29 48.32 80.28 38.9 80.28 38.9C82.16 38.83 84.61 35.6 84.61 35.6C85.98 37.59 92.35 41.45 96.04 40.41C99.73 39.38 99.44 36.9 99.44 36.9C100.11 37.17 100.69 37.61 101.11 38.17C101.54 38.73 101.79 39.38 101.85 40.07C102.05 42.49 98.58 45.1 98.58 45.1Z" fill="url(#paint_linear_1_1182_0)" fill-opacity="1.000000" fill-rule="nonzero"/>
	<g opacity="0.150000">
		<path id="Vector" d="M95.42 47.76C94.55 49.16 90.61 51.39 88.3 52.6L88.17 50.77C88.31 50.77 88.45 50.72 88.59 50.7C90.47 50.38 92.28 49.74 93.92 48.82C93.94 48.81 93.96 48.8 93.98 48.78C94.47 48.51 94.93 48.18 95.36 47.81L95.42 47.76Z" fill="#000000" fill-opacity="1.000000" fill-rule="nonzero"/>
	</g>
	<g opacity="0.150000">
		<path id="Vector" d="M103.75 87.06L113.97 91.03L109.15 87.73L109.15 75.37C109.15 75.37 107.65 86.11 103.75 87.06Z" fill="#000000" fill-opacity="1.000000" fill-rule="nonzero"/>
	</g>
</svg>
