<svg width="20.000000" height="20.000000" viewBox="0 0 20 20" fill="none" xmlns="http://www.w3.org/2000/svg" xmlns:xlink="http://www.w3.org/1999/xlink">
	<desc>
			Created with Pixso.
	</desc>
	<defs/>
	<path id="Vector" d="M9.98 0C4.46 0 0 4.47 0 10C0 15.52 4.46 20 9.98 20C15.52 20 20 15.52 20 10C20 4.47 15.52 0 9.98 0ZM16.91 6L13.97 6C13.64 4.75 13.18 3.55 12.59 2.43C14.42 3.06 15.96 4.34 16.91 6ZM10 2.04C10.83 3.23 11.48 4.56 11.9 6L8.09 6C8.52 4.56 9.16 3.23 10 2.04ZM2.26 12C2.1 11.36 2 10.68 2 10C2 9.31 2.1 8.64 2.26 8L5.63 8C5.56 8.66 5.5 9.31 5.5 10C5.5 10.68 5.56 11.34 5.63 12L2.26 12ZM3.08 14L6.03 14C6.35 15.25 6.81 16.45 7.4 17.56C5.57 16.93 4.04 15.66 3.08 14ZM6.03 6L3.08 6C4.04 4.33 5.57 3.06 7.4 2.43C6.81 3.55 6.35 4.75 6.03 6ZM10 17.95C9.16 16.76 8.52 15.43 8.09 14L11.9 14C11.48 15.43 10.83 16.76 10 17.95ZM12.34 12L7.65 12C7.57 11.34 7.5 10.68 7.5 10C7.5 9.31 7.57 8.65 7.65 8L12.34 8C12.42 8.65 12.5 9.31 12.5 10C12.5 10.68 12.42 11.34 12.34 12ZM12.59 17.56C13.18 16.45 13.64 15.25 13.97 14L16.91 14C15.96 15.65 14.42 16.93 12.59 17.56ZM14.36 12C14.43 11.34 14.5 10.68 14.5 10C14.5 9.31 14.43 8.66 14.36 8L17.74 8C17.89 8.64 18 9.31 18 10C18 10.68 17.89 11.36 17.74 12L14.36 12Z" fill="#1F3F68" fill-opacity="1.000000" fill-rule="nonzero"/>
</svg>
