<svg width="300.313965" height="181.000000" viewBox="0 0 300.314 181" fill="none" xmlns="http://www.w3.org/2000/svg" xmlns:xlink="http://www.w3.org/1999/xlink">
	<desc>
			Created with Pixso.
	</desc>
	<defs>
		<clipPath id="clip1_954">
			<rect id="ic_phone_24px" rx="-0.500000" width="18.479820" height="18.479820" transform="translate(42.706055 62.186035)" fill="white" fill-opacity="0"/>
		</clipPath>
		<clipPath id="clip1_958">
			<rect id="ic_email_24px" rx="-0.500000" width="18.479820" height="18.479820" transform="translate(61.374023 4.558350)" fill="white" fill-opacity="0"/>
		</clipPath>
		<clipPath id="clip1_962">
			<rect id="ic_language_24px" rx="-0.500000" width="18.479820" height="18.479820" transform="translate(132.800781 4.558350)" fill="white" fill-opacity="0"/>
		</clipPath>
		<linearGradient x1="255.537949" y1="142.738281" x2="255.537949" y2="158.624313" id="paint_linear_1_937_0" gradientUnits="userSpaceOnUse">
			<stop stop-color="#6CEDA0"/>
			<stop offset="1.000000" stop-color="#199D56"/>
		</linearGradient>
		<linearGradient x1="273.900970" y1="148.613419" x2="258.665405" y2="153.112671" id="paint_linear_1_938_0" gradientUnits="userSpaceOnUse">
			<stop stop-color="#6CEDA0"/>
			<stop offset="1.000000" stop-color="#199D56"/>
		</linearGradient>
		<linearGradient x1="265.733368" y1="142.692581" x2="256.193237" y2="155.395004" id="paint_linear_1_939_0" gradientUnits="userSpaceOnUse">
			<stop stop-color="#6CEDA0"/>
			<stop offset="1.000000" stop-color="#199D56"/>
		</linearGradient>
		<linearGradient x1="132.020660" y1="61.036579" x2="122.568062" y2="68.500496" id="paint_linear_1_942_0" gradientUnits="userSpaceOnUse">
			<stop stop-color="#FFF8E1"/>
			<stop offset="1.000000" stop-color="#FFCC80"/>
		</linearGradient>
		<linearGradient x1="114.350471" y1="73.845558" x2="100.859459" y2="81.165817" id="paint_linear_1_943_0" gradientUnits="userSpaceOnUse">
			<stop stop-color="#FFF8E1"/>
			<stop offset="1.000000" stop-color="#FFCC80"/>
		</linearGradient>
		<linearGradient x1="138.996185" y1="67.449181" x2="135.379211" y2="86.160873" id="paint_linear_1_944_0" gradientUnits="userSpaceOnUse">
			<stop stop-color="#98D0FC"/>
			<stop offset="1.000000" stop-color="#3481D7"/>
		</linearGradient>
		<linearGradient x1="164.000000" y1="71.500000" x2="170.000000" y2="84.000000" id="paint_linear_1_945_0" gradientUnits="userSpaceOnUse">
			<stop stop-color="#FFF8E1"/>
			<stop offset="1.000000" stop-color="#FFCC80"/>
		</linearGradient>
		<linearGradient x1="42.500008" y1="138.000000" x2="78.000015" y2="152.000000" id="paint_linear_1_946_0" gradientUnits="userSpaceOnUse">
			<stop offset="0.064260" stop-color="#EB5757"/>
			<stop offset="1.000000" stop-color="#872727"/>
		</linearGradient>
		<linearGradient x1="120.999985" y1="79.999992" x2="142.000000" y2="114.499992" id="paint_linear_1_948_0" gradientUnits="userSpaceOnUse">
			<stop stop-color="#98D0FC"/>
			<stop offset="1.000000" stop-color="#3481D7"/>
		</linearGradient>
		<linearGradient x1="70.000000" y1="107.999924" x2="100.999992" y2="142.499939" id="paint_linear_1_950_0" gradientUnits="userSpaceOnUse">
			<stop stop-color="#EB5757"/>
			<stop offset="1.000000" stop-color="#872727"/>
		</linearGradient>
		<linearGradient x1="240.000000" y1="116.999855" x2="167.000000" y2="97.999863" id="paint_linear_1_951_0" gradientUnits="userSpaceOnUse">
			<stop stop-color="#FCF898"/>
			<stop offset="1.000000" stop-color="#D7BD34"/>
		</linearGradient>
		<linearGradient x1="189.007797" y1="51.270996" x2="189.007797" y2="112.674187" id="paint_linear_1_952_0" gradientUnits="userSpaceOnUse">
			<stop stop-color="#AF6CED"/>
			<stop offset="1.000000" stop-color="#5E199D"/>
		</linearGradient>
	</defs>
	<g opacity="0.200000">
		<ellipse id="Ellipse" cx="150.156738" cy="171.260010" rx="150.156952" ry="9.739910" fill="#98C3E8" fill-opacity="1.000000"/>
	</g>
	<path id="Vector 3" d="M255.07 155.87C252.26 151.19 247.4 142.03 250.39 142.78C254.13 143.71 261.61 154.47 261.61 156.8C261.61 159.14 257.2 159.61 255.07 155.87Z" fill="url(#paint_linear_1_937_0)" fill-opacity="1.000000" fill-rule="evenodd"/>
	<path id="Vector 3.1" d="M261.17 151.88C264.86 147.87 272.27 140.61 272.4 143.69C272.56 147.54 264.37 157.76 262.12 158.42C259.88 159.09 258.18 154.99 261.17 151.88Z" fill="url(#paint_linear_1_938_0)" fill-opacity="1.000000" fill-rule="evenodd"/>
	<path id="Vector 3.2" d="M257.47 152.91C258.03 147.49 259.65 137.24 261.59 139.64C264.02 142.63 263.54 155.72 262.14 157.59C260.74 159.46 256.92 157.18 257.47 152.91Z" fill="url(#paint_linear_1_939_0)" fill-opacity="1.000000" fill-rule="evenodd"/>
	<path id="Vector 3" d="M51.67 168.79L53.07 163.65L48.86 163.65L42.32 172.07L51.67 168.79ZM23.61 172.07L27.35 168.79L24.08 166.46L13.79 172.07L23.61 172.07Z" fill="#6FCF97" fill-opacity="1.000000" fill-rule="evenodd"/>
	<path id="Vector 3" d="M108.71 72.47L111.52 65.92L105.44 62.65L102.17 70.6L102.64 75.74L107.31 74.34L108.71 72.47Z" fill="#F2994A" fill-opacity="1.000000" fill-rule="evenodd"/>
	<path id="Vector 3" d="M126.95 70.6L125.55 68.73C125.55 68.73 124.18 68.09 123.68 67.33C123.06 66.4 122.9 65.59 123.21 64.52C123.46 63.64 124.61 62.65 124.61 62.65L121.81 58.91C121.96 57.98 121.81 57.04 123.21 58.44C124.75 59.99 127.42 63.12 128.82 65.46L130.69 68.73L126.95 70.6Z" fill="url(#paint_linear_1_942_0)" fill-opacity="1.000000" fill-rule="evenodd"/>
	<path id="Vector 3" d="M108.25 83.23L105.91 79.95C105.91 79.95 101.91 79.13 100.76 77.15C99.67 75.25 99.24 73.11 100.76 71.54C101.22 71.06 102.17 70.6 102.17 70.6C102.79 71.54 103.48 73 104.97 73.41C106.43 73.8 107.78 72.78 108.71 72.47C108.71 73.25 108.71 74.9 108.71 75.28C108.71 75.65 111.21 78.55 112.45 79.95L108.25 83.23Z" fill="url(#paint_linear_1_943_0)" fill-opacity="1.000000" fill-rule="evenodd"/>
	<path id="Vector 4" d="M148 85.5L130.69 68.73L126.95 70.6L138.64 87.9L148 85.5Z" fill="url(#paint_linear_1_944_0)" fill-opacity="1.000000" fill-rule="evenodd"/>
	<path id="Vector 3" d="M166.23 66.39C163.27 68.42 157.72 73.31 159.21 76.68C160.71 80.05 162.64 82.45 163.42 83.23L160.62 89.3L168.1 99.59L172.77 89.3L178.85 81.35L166.23 66.39Z" fill="url(#paint_linear_1_945_0)" fill-opacity="1.000000" fill-rule="evenodd"/>
	<path id="Vector 2" d="M24.08 166.46L27.35 168.33L67.57 144.48L116.19 135.6L108.25 120.17L71.31 120.17L24.08 166.46Z" fill="url(#paint_linear_1_946_0)" fill-opacity="1.000000" fill-rule="evenodd"/>
	<g opacity="0.200000">
		<path id="Vector 3" d="M67.5 144.5L114.5 135.5L73.5 121L59.5 149L67.5 144.5Z" fill="#000000" fill-opacity="1.000000" fill-rule="evenodd"/>
	</g>
	<path id="Vector 3" d="M117.13 114.55C119.31 114.09 124.89 112.68 127.88 110.81C131.62 108.48 140.04 99.59 140.98 97.72C141.91 95.85 127.88 99.59 122.74 97.72C118.63 96.22 111.36 87.43 108.25 83.23L112.45 79.95C116.04 83.23 123.86 89.77 126.48 89.77C129.75 89.77 147.99 83.69 151.73 84.16C154.72 84.53 159.99 85.72 162.02 86.03L166.69 92.11L155 119.7L126.48 127.65L117.13 114.55Z" fill="url(#paint_linear_1_948_0)" fill-opacity="1.000000" fill-rule="evenodd"/>
	<g opacity="0.200000">
		<path id="Vector 3" d="M127.5 111C133.16 108.83 144.89 103.5 146.5 99.5C148.1 95.5 143.66 97 141 98C138 101.5 133.5 107 127.5 111Z" fill="#000000" fill-opacity="1.000000" fill-rule="evenodd"/>
	</g>
	<path id="Vector 2" d="M48.86 163.65L53.07 163.65L75.05 128.11L104 134.5L125.08 124.84L117.13 114.55C102.48 113.31 72.05 110.81 67.57 110.81C63.08 110.81 53.23 146.04 48.86 163.65Z" fill="url(#paint_linear_1_950_0)" fill-opacity="1.000000" fill-rule="evenodd"/>
	<path id="Vector" d="M81.59 160.85C83.93 165.05 87.21 170.66 114.33 169.26C141.45 167.86 217.19 164.12 222.81 164.12C228.42 164.12 244.31 147.28 239.17 117.83C234.03 88.37 220.47 60.31 198.49 64.05C176.51 67.79 155 105.67 140.98 113.62C126.95 121.57 109.65 129.98 95.62 138.4C81.59 146.82 78.79 152.43 81.59 160.85Z" fill="url(#paint_linear_1_951_0)" fill-opacity="1.000000" fill-rule="evenodd"/>
	<path id="Vector 2" d="M166.23 66.86C164.98 69.67 163.23 75.56 166.23 76.68C169.97 78.08 176.05 78.08 176.51 81.82C176.98 85.56 166.69 93.51 170.9 98.66C175.11 103.8 168.1 103.33 172.31 110.81C176.51 118.29 182.12 100.99 192.41 97.25C202.7 93.51 201.76 96.79 208.78 92.58C215.79 88.37 214.39 78.55 207.84 74.81C201.3 71.07 201.3 68.26 201.3 63.12C201.3 57.98 191.94 50.03 184.93 51.43C177.92 52.83 167.77 61.72 166.23 66.86Z" fill="url(#paint_linear_1_952_0)" fill-opacity="1.000000" fill-rule="evenodd"/>
	<rect id="Rectangle" x="33.278320" y="57.627930" width="36.471729" height="27.120005" fill="#5A98D0" fill-opacity="1.000000"/>
	<rect id="ic_phone_24px" rx="-0.500000" width="18.479820" height="18.479820" transform="translate(42.706055 62.186035)" fill="#FFFFFF" fill-opacity="0"/>
	<g clip-path="url(#clip1_954)">
		<path id="Vector" d="M47.57 70.44C48.74 72.74 50.63 74.61 52.92 75.79L54.71 74C54.93 73.78 55.25 73.71 55.54 73.81C56.45 74.11 57.43 74.27 58.43 74.27C58.88 74.27 59.25 74.64 59.25 75.08L59.25 77.91C59.25 78.36 58.88 78.73 58.43 78.73C50.81 78.73 44.64 72.55 44.64 64.93C44.64 64.48 45 64.12 45.45 64.12L48.29 64.12C48.74 64.12 49.1 64.48 49.1 64.93C49.1 65.94 49.26 66.92 49.56 67.83C49.65 68.11 49.59 68.43 49.36 68.65L47.57 70.44Z" fill="#FFFFFF" fill-opacity="1.000000" fill-rule="nonzero"/>
	</g>
	<rect id="Rectangle" x="51.946289" width="36.471729" height="27.120005" fill="#5A98D0" fill-opacity="1.000000"/>
	<rect id="ic_email_24px" rx="-0.500000" width="18.479820" height="18.479820" transform="translate(61.374023 4.558350)" fill="#FFFFFF" fill-opacity="0"/>
	<g clip-path="url(#clip1_958)">
		<path id="Vector" d="M77.1 7.3L64.12 7.3C63.22 7.3 62.5 8.03 62.5 8.92L62.49 18.66C62.49 19.56 63.22 20.29 64.12 20.29L77.1 20.29C78 20.29 78.73 19.56 78.73 18.66L78.73 8.92C78.73 8.03 78 7.3 77.1 7.3ZM77.1 10.55L70.61 14.6L64.12 10.55L64.12 8.92L70.61 12.98L77.1 8.92L77.1 10.55Z" fill="#FFFFFF" fill-opacity="1.000000" fill-rule="nonzero"/>
	</g>
	<rect id="Rectangle" x="124.183594" width="36.471729" height="27.120005" fill="#5A98D0" fill-opacity="1.000000"/>
	<rect id="ic_language_24px" rx="-0.500000" width="18.479820" height="18.479820" transform="translate(132.800781 4.558350)" fill="#FFFFFF" fill-opacity="0"/>
	<g clip-path="url(#clip1_962)">
		<path id="Vector" d="M142.03 5.68C137.55 5.68 133.92 9.31 133.92 13.79C133.92 18.27 137.55 21.91 142.03 21.91C146.52 21.91 150.15 18.27 150.15 13.79C150.15 9.31 146.52 5.68 142.03 5.68ZM147.65 10.55L145.26 10.55C145 9.53 144.63 8.56 144.14 7.66C145.63 8.17 146.87 9.21 147.65 10.55ZM142.04 7.33C142.71 8.31 143.24 9.39 143.59 10.55L140.49 10.55C140.84 9.39 141.36 8.31 142.04 7.33ZM135.75 15.42C135.62 14.9 135.54 14.35 135.54 13.79C135.54 13.23 135.62 12.69 135.75 12.17L138.5 12.17C138.43 12.71 138.38 13.24 138.38 13.79C138.38 14.35 138.43 14.88 138.5 15.42L135.75 15.42ZM136.42 17.04L138.81 17.04C139.07 18.05 139.45 19.03 139.93 19.93C138.44 19.42 137.2 18.39 136.42 17.04ZM138.81 10.55L136.42 10.55C137.2 9.2 138.44 8.17 139.93 7.66C139.45 8.56 139.07 9.53 138.81 10.55ZM142.04 20.25C141.36 19.28 140.84 18.2 140.49 17.04L143.59 17.04C143.24 18.2 142.71 19.28 142.04 20.25ZM143.94 15.42L140.14 15.42C140.06 14.88 140.01 14.35 140.01 13.79C140.01 13.24 140.06 12.7 140.14 12.17L143.94 12.17C144.01 12.7 144.07 13.24 144.07 13.79C144.07 14.35 144.01 14.88 143.94 15.42ZM144.14 19.93C144.63 19.03 145 18.05 145.26 17.04L147.65 17.04C146.87 18.38 145.63 19.42 144.14 19.93ZM145.58 15.42C145.64 14.88 145.69 14.35 145.69 13.79C145.69 13.24 145.64 12.71 145.58 12.17L148.32 12.17C148.45 12.69 148.53 13.23 148.53 13.79C148.53 14.35 148.45 14.9 148.32 15.42L145.58 15.42Z" fill="#FFFFFF" fill-opacity="1.000000" fill-rule="nonzero"/>
	</g>
	<path id="Rectangle 2" d="M249.46 152.13C250.86 149.79 270.3 150.26 270.97 152.13C271.63 154 270.03 164.29 266.76 165.22C263.48 166.16 256.94 166.62 254.13 165.22C251.33 163.82 248.05 154.47 249.46 152.13Z" fill="#F2994A" fill-opacity="1.000000" fill-rule="nonzero"/>
</svg>
